<mxfile host="Electron" agent="Mozilla/5.0 (Macintosh; Intel Mac OS X 10_15_7) AppleWebKit/537.36 (KHTML, like Gecko) draw.io/24.7.17 Chrome/128.0.6613.36 Electron/32.0.1 Safari/537.36" version="24.7.17">
  <diagram name="Страница — 1" id="TqWUCyRfT9l22gx97Fvk">
    <mxGraphModel dx="1114" dy="822" grid="1" gridSize="10" guides="1" tooltips="1" connect="1" arrows="1" fold="1" page="1" pageScale="1" pageWidth="1169" pageHeight="827" math="0" shadow="0">
      <root>
        <mxCell id="0" />
        <mxCell id="1" parent="0" />
        <mxCell id="KxXFCrp8vhwxkiUrkdmc-1" value="Сервис сообщений" style="swimlane;startSize=0;" vertex="1" parent="1">
          <mxGeometry x="460" y="530" width="200" height="200" as="geometry" />
        </mxCell>
        <mxCell id="KxXFCrp8vhwxkiUrkdmc-2" value="Сервис видео" style="swimlane;startSize=0;" vertex="1" parent="1">
          <mxGeometry x="460" y="80" width="200" height="200" as="geometry" />
        </mxCell>
        <mxCell id="KxXFCrp8vhwxkiUrkdmc-3" value="Сервис событий" style="swimlane;startSize=0;" vertex="1" parent="1">
          <mxGeometry x="460" y="300" width="200" height="200" as="geometry" />
        </mxCell>
      </root>
    </mxGraphModel>
  </diagram>
</mxfile>
